<svg version="1.1" viewBox="0.0 0.0 1994.753280839895 285.3254593175853" fill="none" stroke="none" stroke-linecap="square" stroke-miterlimit="10" xmlns:xlink="http://www.w3.org/1999/xlink" xmlns="http://www.w3.org/2000/svg"><clipPath id="p.0"><path d="m0 0l1994.7533 0l0 285.32547l-1994.7533 0l0 -285.32547z" clip-rule="nonzero"/></clipPath><g clip-path="url(#p.0)"><path fill="#000000" fill-opacity="0.0" d="m0 0l1994.7533 0l0 285.32547l-1994.7533 0z" fill-rule="evenodd"/><g filter="url(#shadowFilter-p.1)"><use xlink:href="#p.1" transform="matrix(1.0 0.0 0.0 1.0 0.0 4.0)"/></g><defs><filter id="shadowFilter-p.1" filterUnits="userSpaceOnUse"><feGaussianBlur in="SourceAlpha" stdDeviation="5.5" result="blur"/><feComponentTransfer in="blur" color-interpolation-filters="sRGB"><feFuncR type="linear" slope="0" intercept="0.0"/><feFuncG type="linear" slope="0" intercept="0.0"/><feFuncB type="linear" slope="0" intercept="0.0"/><feFuncA type="linear" slope="0.4" intercept="0"/></feComponentTransfer></filter></defs><g id="p.1"><path fill="#000000" fill-opacity="0.0" d="m0 -44.59055l2000.0 0l0 392.0315l-2000.0 0z" fill-rule="evenodd"/><path fill="#000000" d="m56.140625 199.97195l89.828125 0l0 20.4375l-114.96875 0l0 -189.57812l25.140625 0l0 169.14062zm195.8173 6.5q-14.0625 16.546875 -41.265625 16.546875q-22.53125 0 -34.3125 -13.078125q-11.78125 -13.09375 -11.921875 -38.75l0 -91.65626l24.09375 0l0 91.00001q0 32.03125 26.03125 32.03125q27.609375 0 36.71875 -20.5625l0 -102.46876l24.093765 0l0 140.875l-22.92189 0l-0.515625 -13.9375zm179.03072 -54.9375q0 32.15625 -14.71875 51.828125q-14.703125 19.65625 -39.84375 19.65625q-25.640625 0 -40.359375 -16.28125l0 67.84375l-24.078125 0l0 -195.04688l22.0 0l1.171875 15.625q14.71875 -18.234375 40.875 -18.234375q25.390625 0 40.171875 19.140625q14.78125 19.140625 14.78125 53.250008l0 2.21875zm-24.09375 -2.734375q0 -23.828133 -10.15625 -37.625008q-10.15625 -13.8125 -27.859375 -13.8125q-21.875 0 -32.8125 19.40625l0 67.31251q10.8125 19.265625 33.078125 19.265625q17.3125 0 27.53125 -13.734375q10.21875 -13.734375 10.21875 -40.8125zm141.66602 57.671875q-14.0625 16.546875 -41.265625 16.546875q-22.53125 0 -34.3125 -13.078125q-11.78125 -13.09375 -11.921875 -38.75l0 -91.65626l24.09375 0l0 91.00001q0 32.03125 26.03125 32.03125q27.609375 0 36.71875 -20.5625l0 -102.46876l24.09375 0l0 140.875l-22.921875 0l-0.515625 -13.9375zm142.04633 -23.4375q0 -9.765625 -7.359375 -15.15625q-7.34375 -5.40625 -25.640625 -9.3125q-18.296875 -3.90625 -29.046875 -9.375q-10.734375 -5.46875 -15.875 -13.015625q-5.140625 -7.5625 -5.140625 -17.968758q0 -17.328125 14.640625 -29.296875q14.65625 -11.984375 37.4375 -11.984375q23.953125 0 38.859375 12.375q14.921875 12.359375 14.921875 31.640625l-24.21875 0q0 -9.90625 -8.40625 -17.0625q-8.390625 -7.15625 -21.15625 -7.15625q-13.140625 0 -20.5625 5.734375q-7.421875 5.71875 -7.421875 14.96875q0 8.71875 6.890625 13.156258q6.90625 4.421875 24.9375 8.453125q18.03125 4.03125 29.21875 9.640625q11.203125 5.59375 16.609375 13.46875q5.40625 7.875 5.40625 19.203125q0 18.875 -15.109375 30.28125q-15.09375 11.390625 -39.1875 11.390625q-16.921875 0 -29.953125 -5.984375q-13.015625 -6.0 -20.375 -16.734375q-7.34375 -10.75 -7.34375 -23.25l24.078125 0q0.65625 12.109375 9.703125 19.203125q9.046875 7.09375 23.890625 7.09375q13.671875 0 21.9375 -5.53125q8.265625 -5.53125 8.265625 -14.78125z" fill-rule="nonzero"/><path fill="#666666" d="m895.555 156.22195q-0.90625 19.78125 -10.671875 34.953125q-9.765625 15.171875 -27.421875 23.515625q-17.640625 8.328125 -40.296875 8.328125q-37.359375 0 -58.84375 -24.34375q-21.484375 -24.359375 -21.484375 -68.75l0 -9.375008q0 -27.875 9.703125 -48.765625q9.703125 -20.906246 27.921875 -32.29687q18.234375 -11.390627 42.1875 -11.390627q34.5 0 55.46875 18.171877q20.96875 18.156246 23.828125 50.062496l-45.578125 0q-0.515625 -17.328125 -8.71875 -24.875q-8.203125 -7.546871 -25.0 -7.546871q-17.0625 0 -25.0 12.765621q-7.9375 12.75 -8.328125 40.75l0 13.406258q0 30.328125 7.609375 43.359375q7.625 13.015625 26.234375 13.015625q15.765625 0 24.09375 -7.421875q8.328125 -7.421875 8.859375 -23.5625l45.4375 0zm98.94629 64.1875q-2.34375 -4.296875 -4.15625 -12.625q-12.109375 15.234375 -33.859375 15.234375q-19.921875 0 -33.859375 -12.046875q-13.921875 -12.046875 -13.921875 -30.28125q0 -22.90625 16.921875 -34.625q16.9375 -11.71875 49.21875 -11.71875l13.546875 0l0 -7.4218826q0 -19.40625 -16.796875 -19.40625q-15.625 0 -15.625 15.375l-43.875 0q0 -20.453125 17.375 -33.203125q17.390625 -12.765625 44.328125 -12.765625q26.953125 0 42.578125 13.15625q15.624939 13.140625 16.015564 36.0625l0 62.359383q0.265625 19.40625 6.0 29.6875l0 2.21875l-43.890564 0zm-27.46875 -28.640625q8.203125 0 13.609375 -3.515625q5.40625 -3.515625 7.75 -7.953125l0 -22.515625l-12.765625 0q-22.90625 0 -22.90625 20.5625q0 6.0 4.03125 9.71875q4.03125 3.703125 10.28125 3.703125zm135.9372 28.640625l-44.015625 0l0 -200.0l44.015625 0l0 200.0zm86.58569 -31.25q9.234375 0 14.3125 -5.015625q5.078125 -5.015625 4.953125 -14.0l41.140625 0q0 23.1875 -16.609375 38.03125q-16.59375 14.84375 -42.765625 14.84375q-30.71875 0 -48.4375 -19.265625q-17.703125 -19.28125 -17.703125 -53.390625l0 -1.828125q0 -21.343758 7.875 -37.687508q7.890625 -16.34375 22.734375 -25.125q14.84375 -8.796875 35.140625 -8.796875q27.484375 0 43.625 15.234375q16.140625 15.234375 16.140625 41.281258l-41.140625 0q0 -10.937508 -5.34375 -16.796883q-5.328125 -5.859375 -14.3125 -5.859375q-17.0625 0 -19.921875 21.734383q-0.90625 6.90625 -0.90625 19.015625q0 21.21875 5.078125 29.421875q5.078125 8.203125 16.140625 8.203125zm162.88 16.015625q-13.9375 17.84375 -37.625 17.84375q-23.171875 0 -35.09375 -13.46875q-11.90625 -13.484375 -11.90625 -38.75l0 -91.26563l43.875 0l0 91.53126q0 18.09375 17.578125 18.09375q15.09375 0 21.484375 -10.8125l0 -98.81251l44.140625 0l0 140.875l-41.15625 0l-1.296875 -15.234375zm112.759766 15.234375l-44.015625 0l0 -200.0l44.015625 0l0 200.0zm106.36694 0q-2.34375 -4.296875 -4.15625 -12.625q-12.109375 15.234375 -33.859375 15.234375q-19.921875 0 -33.859375 -12.046875q-13.921875 -12.046875 -13.921875 -30.28125q0 -22.90625 16.921875 -34.625q16.9375 -11.71875 49.21875 -11.71875l13.546875 0l0 -7.4218826q0 -19.40625 -16.796875 -19.40625q-15.625 0 -15.625 15.375l-43.875 0q0 -20.453125 17.375 -33.203125q17.390625 -12.765625 44.328125 -12.765625q26.953125 0 42.578125 13.15625q15.625 13.140625 16.015625 36.0625l0 62.359383q0.265625 19.40625 6.0 29.6875l0 2.21875l-43.890625 0zm-27.46875 -28.640625q8.203125 0 13.609375 -3.515625q5.40625 -3.515625 7.75 -7.953125l0 -22.515625l-12.765625 0q-22.90625 0 -22.90625 20.5625q0 6.0 4.03125 9.71875q4.03125 3.703125 10.28125 3.703125zm140.74963 -147.26562l0 35.031246l23.171875 0l0 30.46875l-23.171875 0l0 64.43751q0 7.953125 2.859375 11.078125q2.875 3.125 11.328125 3.125q6.515625 0 10.9375 -0.78125l0 31.375q-11.84375 3.78125 -24.734375 3.78125q-22.65625 0 -33.46875 -10.671875q-10.796875 -10.6875 -10.796875 -32.4375l0 -69.90626l-17.96875 0l0 -30.46875l17.96875 0l0 -35.031246l43.875 0zm30.986084 104.171875q0 -21.093758 8.203125 -37.562508q8.203125 -16.484375 23.5625 -25.328125q15.375 -8.859375 36.078125 -8.859375q31.640625 0 49.859375 19.59375q18.234375 19.59375 18.234375 53.328133l0 1.5625q0 32.9375 -18.296875 52.28125q-18.296875 19.328125 -49.546875 19.328125q-30.0625 0 -48.296875 -18.03125q-18.234375 -18.046875 -19.65625 -48.90625l-0.140625 -7.40625zm43.890625 2.734375q0 19.515625 6.109375 28.640625q6.125 9.109375 18.09375 9.109375q23.4375 0 23.96875 -36.0625l0 -4.421875q0 -37.890633 -24.21875 -37.890633q-22.0 0 -23.828125 32.671883l-0.125 7.953125zm196.59302 -32.171883l-14.453125 -1.03125q-20.6875 0 -26.546875 13.015633l0 89.1875l-43.890625 0l0 -140.875l41.15625 0l1.421875 18.09375q11.078125 -20.703125 30.859375 -20.703125q7.03125 0 12.234375 1.5625l-0.78125 40.75z" fill-rule="nonzero"/></g></g></svg>